jumper-scaled_states
version=1
nRows=6
nColumns=111
inDegrees=yes

# SIMM Motion File Header:
name jumper-scaled_states
datacolumns 111
datarows 6
otherdata 1
range 3.12000000 3.12179259
endheader
time	/jointset/ground_pelvis/pelvis_tilt/value	/jointset/ground_pelvis/pelvis_tilt/speed	/jointset/ground_pelvis/pelvis_list/value	/jointset/ground_pelvis/pelvis_list/speed	/jointset/ground_pelvis/pelvis_rotation/value	/jointset/ground_pelvis/pelvis_rotation/speed	/jointset/ground_pelvis/pelvis_tx/value	/jointset/ground_pelvis/pelvis_tx/speed	/jointset/ground_pelvis/pelvis_ty/value	/jointset/ground_pelvis/pelvis_ty/speed	/jointset/ground_pelvis/pelvis_tz/value	/jointset/ground_pelvis/pelvis_tz/speed	/jointset/hip_r/hip_flexion_r/value	/jointset/hip_r/hip_flexion_r/speed	/jointset/hip_r/hip_adduction_r/value	/jointset/hip_r/hip_adduction_r/speed	/jointset/hip_r/hip_rotation_r/value	/jointset/hip_r/hip_rotation_r/speed	/jointset/knee_r/knee_flexion_r/value	/jointset/knee_r/knee_flexion_r/speed	/jointset/ankle_r/ankle_flexion_r/value	/jointset/ankle_r/ankle_flexion_r/speed	/jointset/subtalar_r/subtalar_angle_r/value	/jointset/subtalar_r/subtalar_angle_r/speed	/jointset/mtp_r/mtp_angle_r/value	/jointset/mtp_r/mtp_angle_r/speed	/jointset/hip_l/hip_flexion_l/value	/jointset/hip_l/hip_flexion_l/speed	/jointset/hip_l/hip_adduction_l/value	/jointset/hip_l/hip_adduction_l/speed	/jointset/hip_l/hip_rotation_l/value	/jointset/hip_l/hip_rotation_l/speed	/jointset/knee_l/knee_flexion_l/value	/jointset/knee_l/knee_flexion_l/speed	/jointset/ankle_l/ankle_flexion_l/value	/jointset/ankle_l/ankle_flexion_l/speed	/jointset/subtalar_l/subtalar_angle_l/value	/jointset/subtalar_l/subtalar_angle_l/speed	/jointset/mtp_l/mtp_angle_l/value	/jointset/mtp_l/mtp_angle_l/speed	/jointset/back/lumbar_extension/value	/jointset/back/lumbar_extension/speed	/jointset/back/lumbar_bending/value	/jointset/back/lumbar_bending/speed	/jointset/back/lumbar_rotation/value	/jointset/back/lumbar_rotation/speed	/jointset/acromial_r/arm_flex_r/value	/jointset/acromial_r/arm_flex_r/speed	/jointset/acromial_r/arm_add_r/value	/jointset/acromial_r/arm_add_r/speed	/jointset/acromial_r/arm_rot_r/value	/jointset/acromial_r/arm_rot_r/speed	/jointset/elbow_r/elbow_flex_r/value	/jointset/elbow_r/elbow_flex_r/speed	/jointset/radioulnar_r/pro_sup_r/value	/jointset/radioulnar_r/pro_sup_r/speed	/jointset/radius_hand_r/wrist_flex_r/value	/jointset/radius_hand_r/wrist_flex_r/speed	/jointset/radius_hand_r/wrist_dev_r/value	/jointset/radius_hand_r/wrist_dev_r/speed	/jointset/acromial_l/arm_flex_l/value	/jointset/acromial_l/arm_flex_l/speed	/jointset/acromial_l/arm_add_l/value	/jointset/acromial_l/arm_add_l/speed	/jointset/acromial_l/arm_rot_l/value	/jointset/acromial_l/arm_rot_l/speed	/jointset/elbow_l/elbow_flex_l/value	/jointset/elbow_l/elbow_flex_l/speed	/jointset/radioulnar_l/pro_sup_l/value	/jointset/radioulnar_l/pro_sup_l/speed	/jointset/radius_hand_l/wrist_flex_l/value	/jointset/radius_hand_l/wrist_flex_l/speed	/jointset/radius_hand_l/wrist_dev_l/value	/jointset/radius_hand_l/wrist_dev_l/speed	/forceset/hamstrings_r/activation	/forceset/hamstrings_r/fiber_length	/forceset/bifemsh_r/activation	/forceset/bifemsh_r/fiber_length	/forceset/glut_max_r/activation	/forceset/glut_max_r/fiber_length	/forceset/iliopsoas_r/activation	/forceset/iliopsoas_r/fiber_length	/forceset/rect_fem_r/activation	/forceset/rect_fem_r/fiber_length	/forceset/vasti_r/activation	/forceset/vasti_r/fiber_length	/forceset/gastroc_r/activation	/forceset/gastroc_r/fiber_length	/forceset/soleus_r/activation	/forceset/soleus_r/fiber_length	/forceset/tib_ant_r/activation	/forceset/tib_ant_r/fiber_length	/forceset/hamstrings_l/activation	/forceset/hamstrings_l/fiber_length	/forceset/bifemsh_l/activation	/forceset/bifemsh_l/fiber_length	/forceset/glut_max_l/activation	/forceset/glut_max_l/fiber_length	/forceset/iliopsoas_l/activation	/forceset/iliopsoas_l/fiber_length	/forceset/rect_fem_l/activation	/forceset/rect_fem_l/fiber_length	/forceset/vasti_l/activation	/forceset/vasti_l/fiber_length	/forceset/gastroc_l/activation	/forceset/gastroc_l/fiber_length	/forceset/soleus_l/activation	/forceset/soleus_l/fiber_length	/forceset/tib_ant_l/activation	/forceset/tib_ant_l/fiber_length
      3.12000000	    -13.65154719	     -0.63600236	     -3.74629856	      2.37443558	      3.65446422	      0.72009677	      0.03775223	      0.01608013	      0.49959251	     -0.05854761	     -0.00455088	     -0.00768222	     85.05846388	      7.62134466	    -13.86851503	     -2.44832321	     -5.60843319	      4.94889523	    113.19637417	     11.97084684	     39.19822212	      4.96164889	      0.00000000	      0.00000000	      0.00000000	      0.00000000	     86.67432099	      5.22767626	     -9.83248109	      0.97488721	      3.19579845	     -2.28248465	    113.03823417	     10.81588255	     40.37598585	      6.06346904	      0.00000000	      0.00000000	      0.00000000	      0.00000000	    -25.05455770	      5.37790992	      4.39917959	     -2.35702535	      5.51000860	      0.99169437	      0.00000000	      0.00000000	      0.00000000	      0.00000000	      0.00000000	      0.00000000	      0.00000000	      0.00000000	      0.00000000	      0.00000000	      0.00000000	      0.00000000	      0.00000000	      0.00000000	      0.00000000	      0.00000000	      0.00000000	      0.00000000	      0.00000000	      0.00000000	      0.00000000	      0.00000000	      0.00000000	      0.00000000	      0.00000000	      0.00000000	      0.00000000	      0.00000000	      0.02438314	      0.12440573	      0.02000000	      0.11869422	      0.02000000	      0.17782206	      0.49433742	      0.04435068	      0.05165352	      0.09404900	      0.12106514	      0.12855227	      0.02000000	      0.07174871	      0.02000000	      0.05810387	      0.99999523	      0.04884565	      0.02000000	      0.12343804	      0.02000000	      0.11773183	      0.02000000	      0.17813221	      0.02000000	      0.04785440	      0.07625745	      0.08997962	      0.13077132	      0.12679409	      0.02000000	      0.06734953	      0.02000000	      0.05600646	      0.99999523	      0.04699785
      3.12005545	    -13.65158240	     -0.63393053	     -3.74616699	      2.36985621	      3.65450405	      0.71647211	      0.03775313	      0.01608683	      0.49958926	     -0.05856973	     -0.00455131	     -0.00767572	     85.05888640	      7.61645823	    -13.86865069	     -2.44352863	     -5.60815891	      4.94178692	    113.19703804	     11.97118047	     39.19849908	      5.04297760	      0.00000000	     -0.00000000	      0.00000000	      0.00000000	     86.67461091	      5.22898165	     -9.83242719	      0.96871581	      3.19567197	     -2.27838349	    113.03883407	     10.81983284	     40.37632269	      6.08973762	     -0.00000000	     -0.00000000	     -0.00000000	      0.00000000	    -25.05425953	      5.37587575	      4.39904895	     -2.35394149	      5.51006373	      0.99711899	      0.00000000	      0.00000000	     -0.00000000	     -0.00000000	      0.00000000	      0.00000000	      0.00000000	      0.00000000	      0.00000000	      0.00000000	      0.00000000	      0.00000000	     -0.00000000	     -0.00000000	     -0.00000000	     -0.00000000	     -0.00000000	     -0.00000000	     -0.00000000	     -0.00000000	     -0.00000000	     -0.00000000	     -0.00000000	     -0.00000000	      0.00000000	      0.00000000	      0.00000000	      0.00000000	      0.02438045	      0.12440592	      0.02000000	      0.11869415	      0.02000000	      0.17782216	      0.49393393	      0.04434986	      0.05171182	      0.09404962	      0.12105473	      0.12855251	      0.02000000	      0.07174873	      0.02000000	      0.05810396	      0.99999524	      0.04884559	      0.02000000	      0.12343816	      0.02000000	      0.11773178	      0.02000000	      0.17813233	      0.02000000	      0.04785290	      0.07624151	      0.08998000	      0.13077852	      0.12679433	      0.02000000	      0.06734960	      0.02000000	      0.05600658	      0.99999524	      0.04699777
      3.12011091	    -13.65161750	     -0.63213594	     -3.74603572	      2.36436073	      3.65454368	      0.71246985	      0.03775402	      0.01609337	      0.49958601	     -0.05859186	     -0.00455174	     -0.00766825	     85.05930862	      7.61083384	    -13.86878604	     -2.43787339	     -5.60788510	      4.93339913	    113.19770188	     11.97040258	     39.19878138	      5.13788415	     -0.00000000	     -0.00000000	      0.00000000	     -0.00000000	     86.67490093	      5.23073897	     -9.83237366	      0.96183183	      3.19554576	     -2.27351306	    113.03943419	     10.82357381	     40.37666129	      6.12229542	     -0.00000000	     -0.00000000	      0.00000000	      0.00000000	    -25.05396146	      5.37410877	      4.39891852	     -2.35012804	      5.51011920	      1.00324361	      0.00000000	      0.00000000	     -0.00000000	     -0.00000000	      0.00000000	      0.00000000	      0.00000000	      0.00000000	      0.00000000	      0.00000000	      0.00000000	      0.00000000	     -0.00000000	      0.00000000	     -0.00000000	     -0.00000000	     -0.00000000	     -0.00000000	      0.00000000	      0.00000000	     -0.00000000	     -0.00000000	      0.00000000	      0.00000000	      0.00000000	      0.00000000	      0.00000000	      0.00000000	      0.02437719	      0.12440611	      0.02000000	      0.11869409	      0.02000000	      0.17782227	      0.49342598	      0.04434906	      0.05178616	      0.09405023	      0.12104234	      0.12855275	      0.02000000	      0.07174875	      0.02000000	      0.05810405	      0.99999525	      0.04884552	      0.02000000	      0.12343828	      0.02000000	      0.11773172	      0.02000000	      0.17813245	      0.02000000	      0.04785139	      0.07622539	      0.08998038	      0.13078824	      0.12679458	      0.02000000	      0.06734966	      0.02000000	      0.05600669	      0.99999525	      0.04699770
      3.12038818	    -13.65179165	     -0.62428951	     -3.74538397	      2.33682618	      3.65473808	      0.68882362	      0.03775848	      0.01612566	      0.49956975	     -0.05870413	     -0.00455386	     -0.00762395	     85.06141522	      7.58496538	    -13.86945752	     -2.40414680	     -5.60652274	      4.89415624	    113.20102036	     11.96596215	     39.20026734	      5.56772464	     -0.00000000	      0.00000000	     -0.00000000	     -0.00000000	     86.67635257	      5.24025953	     -9.83211223	      0.92257617	      3.19491857	     -2.25095624	    113.04243776	     10.84126625	     40.37838371	      6.30798581	      0.00000000	      0.00000000	      0.00000000	      0.00000000	    -25.05247249	      5.36626983	      4.39826937	     -2.33265934	      5.51040193	      1.03704534	      0.00000000	      0.00000000	     -0.00000000	     -0.00000000	     -0.00000000	     -0.00000000	      0.00000000	      0.00000000	     -0.00000000	     -0.00000000	      0.00000000	     -0.00000000	      0.00000000	      0.00000000	      0.00000000	      0.00000000	     -0.00000000	      0.00000000	     -0.00000000	     -0.00000000	     -0.00000000	     -0.00000000	     -0.00000000	     -0.00000000	      0.00000000	     -0.00000000	      0.00000000	      0.00000000	      0.02436095	      0.12440708	      0.02000000	      0.11869376	      0.02000000	      0.17782280	      0.49090388	      0.04434540	      0.05214715	      0.09405298	      0.12098057	      0.12855396	      0.02000000	      0.07174887	      0.02000000	      0.05810450	      0.99999532	      0.04884520	      0.02000000	      0.12343888	      0.02000000	      0.11773143	      0.02000000	      0.17813305	      0.02000000	      0.04784386	      0.07614499	      0.08998230	      0.13083568	      0.12679578	      0.02000000	      0.06734998	      0.02000000	      0.05600725	      0.99999532	      0.04699732
      3.12109038	    -13.65222497	     -0.61124881	     -3.74376777	      2.26601970	      3.65519434	      0.60543848	      0.03776984	      0.01620456	      0.49952843	     -0.05899819	     -0.00455916	     -0.00746598	     85.06672217	      7.53293229	    -13.87110626	     -2.28399757	     -5.60311699	      4.80814473	    113.20941732	     11.94844266	     39.20447420	      6.36372776	     -0.00000000	     -0.00000000	     -0.00000000	     -0.00000000	     86.68004232	      5.27052903	     -9.83150836	      0.79004912	      3.19335483	     -2.20413426	    113.05006469	     10.88204595	     40.38301030	      6.86788970	      0.00000000	      0.00000000	      0.00000000	      0.00000000	    -25.04870957	      5.35234655	      4.39664422	     -2.29810611	      5.51116588	      1.14353966	      0.00000000	      0.00000000	      0.00000000	      0.00000000	     -0.00000000	     -0.00000000	      0.00000000	     -0.00000000	     -0.00000000	     -0.00000000	      0.00000000	      0.00000000	      0.00000000	      0.00000000	     -0.00000000	     -0.00000000	     -0.00000000	     -0.00000000	     -0.00000000	     -0.00000000	     -0.00000000	     -0.00000000	     -0.00000000	     -0.00000000	      0.00000000	      0.00000000	      0.00000000	      0.00000000	      0.02432006	      0.12440963	      0.02000000	      0.11869293	      0.02000000	      0.17782415	      0.48464580	      0.04433814	      0.05298628	      0.09405822	      0.12082548	      0.12855714	      0.02000000	      0.07174919	      0.02000000	      0.05810568	      0.99999548	      0.04884436	      0.02000000	      0.12344038	      0.02000000	      0.11773070	      0.02000000	      0.17813457	      0.02000000	      0.04782484	      0.07594298	      0.08998716	      0.13094768	      0.12679873	      0.02000000	      0.06735079	      0.02000000	      0.05600868	      0.99999548	      0.04699635
      3.12179259	    -13.65265133	     -0.60363827	     -3.74220220	      2.19274702	      3.65558178	      0.49415152	      0.03778124	      0.01628257	      0.49948689	     -0.05930154	     -0.00456433	     -0.00725305	     85.07199749	      7.49387092	    -13.87265524	     -2.12186408	     -5.59976921	      4.72735385	    113.21779854	     11.92156059	     39.20918924	      7.07558485	     -0.00000000	     -0.00000000	     -0.00000000	     -0.00000000	     86.68375744	      5.31276636	     -9.83101099	      0.62239475	      3.19182457	     -2.15209536	    113.05772499	     10.94029536	     40.38796838	      7.19003217	      0.00000000	      0.00000000	      0.00000000	      0.00000000	    -25.04495466	      5.34267898	      4.39503955	     -2.27378734	      5.51201400	      1.27563978	      0.00000000	      0.00000000	     -0.00000000	     -0.00000000	     -0.00000000	     -0.00000000	     -0.00000000	     -0.00000000	     -0.00000000	     -0.00000000	      0.00000000	      0.00000000	      0.00000000	      0.00000000	     -0.00000000	     -0.00000000	     -0.00000000	     -0.00000000	     -0.00000000	     -0.00000000	     -0.00000000	     -0.00000000	     -0.00000000	     -0.00000000	      0.00000000	     -0.00000000	      0.00000000	      0.00000000	      0.02427957	      0.12441228	      0.02000000	      0.11869210	      0.02000000	      0.17782551	      0.47856708	      0.04433321	      0.05372813	      0.09406140	      0.12067229	      0.12856045	      0.02000000	      0.07174955	      0.02000000	      0.05810697	      0.99999564	      0.04884350	      0.02000000	      0.12344188	      0.02000000	      0.11772996	      0.02000000	      0.17813606	      0.02000000	      0.04780589	      0.07574322	      0.08999202	      0.13104892	      0.12680157	      0.02000000	      0.06735163	      0.02000000	      0.05601017	      0.99999564	      0.04699538
